<svg xmlns="http://www.w3.org/2000/svg" viewBox="0 0 1200 620" preserveAspectRatio="xMidYMid slice">
  <defs>
    <linearGradient id="sky" x1="0" x2="1" y1="0" y2="1">
      <stop offset="0" stop-color="#fbfaf7"/>
      <stop offset="0.46" stop-color="#f3d6ad"/>
      <stop offset="1" stop-color="#b67f58"/>
    </linearGradient>
    <linearGradient id="trail" x1="0" x2="1" y1="0" y2="0">
      <stop offset="0" stop-color="#5e7a5e" stop-opacity="0.78"/>
      <stop offset="1" stop-color="#5a2e17" stop-opacity="0.72"/>
    </linearGradient>
    <filter id="soft" x="-20%" y="-20%" width="140%" height="140%">
      <feGaussianBlur stdDeviation="10"/>
    </filter>
  </defs>
  <rect width="1200" height="620" fill="url(#sky)"/>
  <circle cx="830" cy="150" r="88" fill="#f6d37c" opacity="0.64"/>
  <circle cx="820" cy="150" r="120" fill="#f9e4b7" opacity="0.32" filter="url(#soft)"/>
  <path d="M0 392 C210 280 320 358 500 260 C685 160 820 240 1200 112 L1200 620 L0 620 Z" fill="#c49a7c" opacity="0.42"/>
  <path d="M0 482 C210 330 405 410 620 300 C812 202 960 274 1200 190 L1200 620 L0 620 Z" fill="#5e7a5e" opacity="0.55"/>
  <path d="M168 620 C338 458 520 390 748 320 C884 278 1018 236 1200 168 L1200 620 Z" fill="url(#trail)"/>
  <path d="M420 424 C548 382 650 366 790 338" fill="none" stroke="#fbfaf7" stroke-width="6" stroke-linecap="round" stroke-dasharray="18 18" opacity="0.5"/>
  <g transform="translate(710 166) scale(1.12)" fill="none" stroke="#241b17" stroke-linecap="round" stroke-linejoin="round" stroke-width="15">
    <circle cx="52" cy="30" r="20" fill="#241b17" stroke="none"/>
    <path d="M48 60 L24 132 L80 164"/>
    <path d="M46 76 L114 98"/>
    <path d="M28 132 L-20 210"/>
    <path d="M80 164 L140 232"/>
    <path d="M34 98 L-22 74"/>
  </g>
  <path d="M0 536 C210 492 380 508 560 462 C735 418 930 404 1200 344 L1200 620 L0 620 Z" fill="#f5f1eb" opacity="0.18"/>
  <rect width="1200" height="620" fill="#5a2e17" opacity="0.04"/>
</svg>
